# xmcd CD database file
#
# Track frame offsets:
#	150
#	15225
#	28650
#	41775
#	56775
#	69225
#	86400
#	101550
#	113325
#	126750
#
# Disc length: 1889 seconds
#
# Revision: 0
# Processed by: cddbd v1.5.1PL0 Copyright (c) Steve Scherf et al.
# Submitted via: CDex 1.51
#
DISCID=74075f0a
DTITLE=Kenny Rogers - Kenny Rogers The First Hits
DYEAR=1900
DGENRE=Country
TTITLE0=Conditions (Just Dropped In)
TTITLE1=But You Know That I Love You
TTITLE2=Ruby Don't Take Your Love To Town
TTITLE3=Heed The Call
TTITLE4=Reuben James
TTITLE5=Something's Burning
TTITLE6=Tell It All Brother
TTITLE7=Elvira
TTITLE8=Shine On fRuby Mountain
TTITLE9=After All (I Live My Life)
EXTD=
EXTT0=
EXTT1=
EXTT2=
EXTT3=
EXTT4=
EXTT5=
EXTT6=
EXTT7=
EXTT8=
EXTT9=
PLAYORDER=
